<svg width="184" height="28" viewBox="0 0 184 28" fill="none" xmlns="http://www.w3.org/2000/svg">
<path d="M23.8442 22.8203C24.0786 23.0286 24.0786 23.25 23.8442 23.4844L22.9849 24.3438C22.7505 24.5781 22.5291 24.5781 22.3208 24.3438L17.5942 19.6172C17.4901 19.513 17.438 19.4089 17.438 19.3047V18.7578C15.9015 20.0859 14.1307 20.75 12.1255 20.75C9.8859 20.75 7.97184 19.9557 6.3833 18.3672C4.79476 16.7786 4.00049 14.8646 4.00049 12.625C4.00049 10.3854 4.79476 8.47135 6.3833 6.88281C7.97184 5.29427 9.8859 4.5 12.1255 4.5C14.3651 4.5 16.2791 5.29427 17.8677 6.88281C19.4562 8.47135 20.2505 10.3854 20.2505 12.625C20.2505 14.6302 19.5864 16.401 18.2583 17.9375H18.8052C18.9354 17.9375 19.0396 17.9896 19.1177 18.0938L23.8442 22.8203ZM7.71143 17.0391C8.93538 18.263 10.4067 18.875 12.1255 18.875C13.8442 18.875 15.3156 18.263 16.5396 17.0391C17.7635 15.8151 18.3755 14.3438 18.3755 12.625C18.3755 10.9062 17.7635 9.4349 16.5396 8.21094C15.3156 6.98698 13.8442 6.375 12.1255 6.375C10.4067 6.375 8.93538 6.98698 7.71143 8.21094C6.48747 9.4349 5.87549 10.9062 5.87549 12.625C5.87549 14.3438 6.48747 15.8151 7.71143 17.0391Z" fill="#111111"/>
<path d="M69.5161 16.375C70.9484 16.375 72.1724 16.8958 73.188 17.9375C74.2297 18.9531 74.7505 20.1771 74.7505 21.6094V22.625C74.7505 23.1458 74.5682 23.5885 74.2036 23.9531C73.839 24.3177 73.3963 24.5 72.8755 24.5H59.1255C58.6047 24.5 58.1619 24.3177 57.7974 23.9531C57.4328 23.5885 57.2505 23.1458 57.2505 22.625V21.6094C57.2505 20.1771 57.7583 18.9531 58.7739 17.9375C59.8156 16.8958 61.0526 16.375 62.4849 16.375C62.8234 16.375 63.3182 16.4792 63.9692 16.6875C64.6463 16.8958 65.3234 17 66.0005 17C66.6776 17 67.3547 16.8958 68.0317 16.6875C68.7088 16.4792 69.2036 16.375 69.5161 16.375ZM72.8755 22.625V21.6094C72.8755 20.6979 72.5369 19.9167 71.8599 19.2656C71.2088 18.5885 70.4276 18.25 69.5161 18.25C69.438 18.25 69.0213 18.3542 68.2661 18.5625C67.5369 18.7708 66.7817 18.875 66.0005 18.875C65.2192 18.875 64.451 18.7708 63.6958 18.5625C62.9666 18.3542 62.563 18.25 62.4849 18.25C61.5734 18.25 60.7791 18.5885 60.1021 19.2656C59.451 19.9167 59.1255 20.6979 59.1255 21.6094V22.625H72.8755ZM69.9849 14.1094C68.8911 15.2031 67.563 15.75 66.0005 15.75C64.438 15.75 63.1099 15.2031 62.0161 14.1094C60.9224 13.0156 60.3755 11.6875 60.3755 10.125C60.3755 8.5625 60.9224 7.23438 62.0161 6.14062C63.1099 5.04688 64.438 4.5 66.0005 4.5C67.563 4.5 68.8911 5.04688 69.9849 6.14062C71.0786 7.23438 71.6255 8.5625 71.6255 10.125C71.6255 11.6875 71.0786 13.0156 69.9849 14.1094ZM68.6567 7.46875C67.9276 6.73958 67.0422 6.375 66.0005 6.375C64.9588 6.375 64.0734 6.73958 63.3442 7.46875C62.6151 8.19792 62.2505 9.08333 62.2505 10.125C62.2505 11.1667 62.6151 12.0521 63.3442 12.7812C64.0734 13.5104 64.9588 13.875 66.0005 13.875C67.0422 13.875 67.9276 13.5104 68.6567 12.7812C69.3859 12.0521 69.7505 11.1667 69.7505 10.125C69.7505 9.08333 69.3859 8.19792 68.6567 7.46875Z" fill="#111111"/>
<path d="M125.93 7C126.868 7.80729 127.493 8.77083 127.805 9.89062C128.118 10.9844 128.131 12.0391 127.844 13.0547C127.558 14.0703 127.063 14.9427 126.36 15.6719L119.524 22.625C119.107 23.0417 118.612 23.25 118.04 23.25C117.467 23.25 116.972 23.0417 116.555 22.625L109.719 15.6719C109.016 14.9427 108.521 14.0703 108.235 13.0547C107.948 12.013 107.961 10.9453 108.274 9.85156C108.586 8.75781 109.211 7.80729 110.149 7C111.269 6.0625 112.584 5.65885 114.094 5.78906C115.631 5.89323 116.946 6.49219 118.04 7.58594C119.133 6.49219 120.435 5.89323 121.946 5.78906C123.482 5.65885 124.81 6.0625 125.93 7ZM125.032 14.3438C125.787 13.5625 126.165 12.612 126.165 11.4922C126.165 10.3464 125.696 9.33073 124.758 8.44531C123.977 7.82031 123.066 7.54688 122.024 7.625C121.008 7.70312 120.136 8.11979 119.407 8.875L118.04 10.2422L116.672 8.875C115.943 8.11979 115.058 7.70312 114.016 7.625C113 7.54688 112.102 7.82031 111.321 8.44531C110.383 9.33073 109.915 10.3464 109.915 11.4922C109.915 12.612 110.292 13.5625 111.047 14.3438L117.922 21.2969C118 21.401 118.079 21.401 118.157 21.2969L125.032 14.3438Z" fill="#111111"/>
<path d="M175 9.5H178.75V21.375C178.75 22.2344 178.438 22.9635 177.813 23.5625C177.214 24.1875 176.485 24.5 175.625 24.5H164.375C163.516 24.5 162.774 24.1875 162.149 23.5625C161.55 22.9635 161.25 22.2344 161.25 21.375V9.5H165C165 8.11979 165.482 6.94792 166.446 5.98438C167.435 4.99479 168.62 4.5 170 4.5C171.381 4.5 172.553 4.99479 173.516 5.98438C174.506 6.94792 175 8.11979 175 9.5ZM172.188 7.3125C171.589 6.6875 170.86 6.375 170 6.375C169.141 6.375 168.399 6.6875 167.774 7.3125C167.175 7.91146 166.875 8.64062 166.875 9.5H173.125C173.125 8.64062 172.813 7.91146 172.188 7.3125ZM176.875 21.375V11.375H175V12.9375C175 13.1979 174.909 13.4193 174.727 13.6016C174.545 13.7839 174.323 13.875 174.063 13.875C173.803 13.875 173.581 13.7839 173.399 13.6016C173.217 13.4193 173.125 13.1979 173.125 12.9375V11.375H166.875V12.9375C166.875 13.1979 166.784 13.4193 166.602 13.6016C166.42 13.7839 166.198 13.875 165.938 13.875C165.678 13.875 165.456 13.7839 165.274 13.6016C165.092 13.4193 165 13.1979 165 12.9375V11.375H163.125V21.375C163.125 21.7135 163.243 22 163.477 22.2344C163.737 22.4948 164.037 22.625 164.375 22.625H175.625C175.964 22.625 176.25 22.4948 176.485 22.2344C176.745 22 176.875 21.7135 176.875 21.375Z" fill="#111111"/>
</svg>
